<svg width="36" height="36" viewBox="0 0 36 36" fill="none" xmlns="http://www.w3.org/2000/svg">
<circle cx="18" cy="18" r="17.5" stroke="#C4C4C4" stroke-opacity="0.3"/>
<path fill-rule="evenodd" clip-rule="evenodd" d="M16.021 10.86C16.021 10.7606 16.1016 10.68 16.201 10.68H20.161C20.2604 10.68 20.341 10.7606 20.341 10.86V12.3H17.6408H16.021V10.86ZM14.941 12.3V10.86C14.941 10.1641 15.5051 9.59998 16.201 9.59998H20.161C20.8569 9.59998 21.421 10.1641 21.421 10.86V12.3H25.2008V13.38H24.6188L23.5388 26.7H12.836L11.396 13.38H10.8008V12.3H14.941ZM12.4823 13.38L13.8055 25.62H22.5428L23.5352 13.38H12.4823ZM15.1209 23.46V15.54H16.2009V23.46H15.1209ZM17.6404 15.54V23.46H18.7204V15.54H17.6404ZM20.16 23.46V15.54H21.24V23.46H20.16Z" fill="#8B8B8B"/>
</svg>
