<svg width="18" height="32" viewBox="0 0 18 32" fill="none" xmlns="http://www.w3.org/2000/svg">
<path d="M16.7908 5.33333H11.4884C10.5123 5.33333 9.72096 6.12928 9.72096 7.11111V12.4444H16.7908C16.9917 12.44 17.1824 12.534 17.3019 12.6967C17.4214 12.8594 17.455 13.0702 17.3917 13.2622L16.0838 17.1733C15.9632 17.5323 15.6297 17.7749 15.2531 17.7778H9.72096V31.1111C9.72096 31.602 9.32523 32 8.83724 32H4.41862C3.93056 32 3.5349 31.602 3.5349 31.1111V17.7778H0.883724C0.395661 17.7778 0 17.3797 0 16.8889V13.3333C0 12.8425 0.395661 12.4444 0.883724 12.4444H3.5349V7.11111C3.5349 3.18375 6.70022 0 10.6047 0H16.7908C17.2787 0 17.6745 0.397973 17.6745 0.888889V4.44444C17.6745 4.93536 17.2787 5.33333 16.7908 5.33333Z" fill="#5B6773"/>
</svg>
