<svg width="33" height="32" viewBox="0 0 33 32" fill="none" xmlns="http://www.w3.org/2000/svg">
<path fill-rule="evenodd" clip-rule="evenodd" d="M23.5354 0H9.39583C4.51517 0 0.558594 3.9797 0.558594 8.88889V23.1111C0.558594 28.0203 4.51517 32 9.39583 32H23.5354C28.416 32 32.3727 28.0203 32.3727 23.1111V8.88889C32.3727 3.9797 28.416 0 23.5354 0ZM29.2796 23.1111C29.2699 26.298 26.7037 28.8791 23.5354 28.8889H9.39583C6.22742 28.8791 3.66133 26.298 3.65163 23.1111V8.88889C3.66133 5.70196 6.22742 3.12087 9.39583 3.11111H23.5354C26.7037 3.12087 29.2699 5.70196 29.2796 8.88889V23.1111ZM24.861 9.33333C25.8372 9.33333 26.6285 8.53739 26.6285 7.55556C26.6285 6.57372 25.8372 5.77778 24.861 5.77778C23.8848 5.77778 23.0936 6.57372 23.0936 7.55556C23.0936 8.53739 23.8848 9.33333 24.861 9.33333ZM16.4656 8C12.073 8 8.51211 11.5817 8.51211 16C8.51211 20.4183 12.073 24 16.4656 24C20.8583 24 24.4191 20.4183 24.4191 16C24.4239 13.8768 23.5874 11.8392 22.0948 10.3379C20.6022 8.8366 18.5765 7.99527 16.4656 8ZM11.6051 16C11.6051 18.7001 13.7812 20.8889 16.4656 20.8889C19.15 20.8889 21.3261 18.7001 21.3261 16C21.3261 13.2999 19.15 11.1111 16.4656 11.1111C13.7812 11.1111 11.6051 13.2999 11.6051 16Z" fill="#5B6773"/>
</svg>
