<svg width="32" height="28" viewBox="0 0 32 28" fill="none" xmlns="http://www.w3.org/2000/svg">
<path d="M31.953 4.71988C31.1322 5.82125 30.14 6.78198 29.0147 7.56496C29.0147 7.85266 29.0147 8.14036 29.0147 8.44406C29.0237 13.6687 26.9489 18.6785 23.2554 22.3503C19.5618 26.0221 14.5585 28.0488 9.36727 27.9759C6.36604 27.986 3.40323 27.2968 0.710968 25.962C0.56579 25.8982 0.472168 25.7538 0.472715 25.5944V25.4185C0.472715 25.189 0.657609 25.0031 0.88568 25.0031C3.83582 24.9051 6.6807 23.8763 9.01783 22.0621C6.34755 22.0079 3.94499 20.4168 2.83929 17.9702C2.78346 17.8367 2.80083 17.6833 2.88519 17.5657C2.96954 17.4482 3.10865 17.3835 3.25226 17.3949C4.06382 17.4769 4.88349 17.4009 5.6665 17.1711C2.71874 16.5556 0.503805 14.0941 0.186813 11.0813C0.175555 10.9368 0.239943 10.7969 0.356736 10.7119C0.473511 10.6271 0.625812 10.6095 0.758618 10.6658C1.54966 11.0169 2.4036 11.2018 3.26815 11.2091C0.685198 9.50399 -0.430468 6.26059 0.552127 3.31334C0.653561 3.02696 0.897239 2.81538 1.19362 2.7564C1.48999 2.69739 1.79537 2.79967 1.99749 3.02564C5.48302 6.75695 10.2722 8.98043 15.3551 9.22724C15.225 8.70468 15.1611 8.16763 15.1646 7.62889C15.2121 4.804 16.9499 2.28754 19.5643 1.2576C22.1785 0.227684 25.1521 0.888112 27.0929 2.92973C28.4157 2.67624 29.6946 2.2293 30.8889 1.6031C30.9764 1.54816 31.0873 1.54816 31.1748 1.6031C31.2295 1.69113 31.2295 1.80276 31.1748 1.8908C30.5964 3.2232 29.6191 4.34072 28.3794 5.08751C29.465 4.96088 30.5315 4.70329 31.5561 4.32031C31.6423 4.26125 31.7556 4.26125 31.8419 4.32031C31.9142 4.35355 31.9682 4.41714 31.9896 4.49414C32.011 4.57113 31.9976 4.65371 31.953 4.71988Z" fill="#5B6773"/>
</svg>
